<svg width="103" height="58" viewBox="0 0 103 58" fill="none" xmlns="http://www.w3.org/2000/svg">
<path d="M38.0005 25.138C41.0715 25.138 43.5695 22.64 43.5695 19.57C43.5695 16.498 41.0715 14 38.0005 14C34.9295 14 32.4315 16.498 32.4315 19.569C32.4315 22.64 34.9295 25.138 38.0005 25.138ZM38.0005 16C39.9685 16 41.5695 17.602 41.5695 19.569C41.5695 21.536 39.9685 23.138 38.0005 23.138C36.0325 23.138 34.4315 21.537 34.4315 19.57C34.4315 17.603 36.0325 16 38.0005 16Z" fill="#BABABA"/>
<path d="M29.0005 43C29.2345 43 29.4705 42.918 29.6605 42.751L45.9735 28.389L56.2755 38.69C56.6665 39.081 57.2985 39.081 57.6895 38.69C58.0805 38.299 58.0805 37.667 57.6895 37.276L52.8825 32.469L62.0635 22.415L73.3245 32.738C73.7315 33.111 74.3645 33.083 74.7375 32.676C75.1105 32.269 75.0835 31.636 74.6755 31.263L62.6755 20.263C62.4795 20.084 62.2185 19.995 61.9555 20.001C61.6905 20.013 61.4405 20.13 61.2615 20.326L51.4675 31.053L46.7245 26.31C46.3505 25.937 45.7525 25.918 45.3565 26.266L28.3395 41.249C27.9245 41.614 27.8845 42.246 28.2495 42.661C28.4475 42.886 28.7235 43 29.0005 43Z" fill="#BABABA"/>
</svg>
