<svg version="1.1" xmlns="http://www.w3.org/2000/svg" xmlns:xlink="http://www.w3.org/1999/xlink">
  <symbol viewBox="0 0 80 80" id= "logo">
    <path d="M25.4 41.3l-3.7-14.1h-5v25.5h3.9V37.1L23.8 49h3.4l3.1-11.9v15.7h3.9V27.2h-5l-3.8 14.1zm21.9.6l-6.6-6.4c-.5-.5-.8-.9-1-1.3-.1-.4-.2-1-.2-1.8 0-.7.2-1.2.6-1.5.4-.4 1.2-.6 2.1-.6 1 0 1.7.2 2.1.6.4.4.6.9.6 1.6v4H49v-3.8c0-2.7-1.1-5.9-6.5-5.9-2.2 0-3.9.5-5 1.5-1.2 1-1.7 2.5-1.7 4.4 0 1.2.2 2.2.5 3 .3.8.9 1.6 1.7 2.5l6.4 6.4c.5.5.8 1 1 1.4.2.4.2 1.1.2 1.8 0 .6-.2 1.1-.7 1.5-.5.4-1.3.6-2.3.6-1.1 0-1.8-.2-2.3-.6-.4-.4-.7-.9-.7-1.6v-4h-3.9v3.8c0 4.9 3.7 5.9 6.8 5.9 3.1 0 6.8-1 6.8-5.9 0-1.2-.1-2.2-.4-3-.3-.9-.8-1.7-1.6-2.6zm2.5-14.7v3.5h4.8v22h3.9v-22h4.8v-3.5H49.8z"></path>
  </symbol>

  <symbol viewBox="0 0 618.27 247.624" id="hello">
    <g fill="currentColor" fill-rule="evenodd">
      <path d="M83.431 0l93.744.082-83.431 113.526L0 113.547z"/>
      <path d="M209.45 103.616V68.689h32.7v34.926h25.458v-91.9h-25.455v34.607h-32.7V11.716h-25.459v91.9zm147.057 0V81.955h-49.378V67.408h44.117V47.284h-44.117V33.377h48.733V11.716h-73.933v91.9zm81.069 0V81.251h-44.568V11.716h-25.454v91.9zm78.892 0V81.251h-44.567V11.716h-25.46v91.9zm6.844-21.8a46.473 46.473 0 0 0 17.73 17.292 53.122 53.122 0 0 0 44.9 2.594 48.377 48.377 0 0 0 15.733-10.183 47.292 47.292 0 0 0 10.329-15.242 46.471 46.471 0 0 0 3.806-18.574 47.359 47.359 0 0 0-3.738-18.693 46.561 46.561 0 0 0-10.225-15.2 47.9 47.9 0 0 0-15.659-10.133 53.15 53.15 0 0 0-39.311.032 48.576 48.576 0 0 0-15.775 10.2 47.6 47.6 0 0 0-10.356 15.231 46.3 46.3 0 0 0-3.813 18.565 46.928 46.928 0 0 0 6.378 24.106zm26.258-41.727a21.583 21.583 0 0 1 16.741-7.22 21.973 21.973 0 0 1 16.989 7.316 26.662 26.662 0 0 1 .132 35.133 23.2 23.2 0 0 1-33.73-.1 26.665 26.665 0 0 1-.131-35.133zM42.825 245.77q25.172 0 41.313-15.453t16.139-38.64q0-23.334-16.062-38.714t-41.39-15.377H.663V245.77zm-18.379-86.7h18.379q14.515 0 23.552 9.118t9.035 23.491q0 14.532-8.957 23.568t-23.63 9.042H24.447zm119.537 86.7V137.586h-23.782V245.77zm122.935-15.3v-46.985h-46.95v20.561h23.939v15.453q-9.115 6.495-22.394 6.492-14.363 0-23.552-9.737t-9.189-24.573a34.529 34.529 0 0 1 9.035-24.032q9.035-9.968 22.007-9.969a39.384 39.384 0 0 1 15.135 2.628 51.339 51.339 0 0 1 13.127 8.345l14.98-18.082a63.357 63.357 0 0 0-18.688-11.2q-9.728-3.636-23.784-3.632-24.249 0-40.463 16.3t-16.22 39.638q0 24.423 15.83 40.184t41 15.763q25.947 0 46.178-17.152zm45.4 15.3V137.586H288.54V245.77h23.782zm73.668 0v-86.238h32.9v-21.946h-89.574v21.946h32.9v86.238h23.783zm49.886 0l9.883-24.263h45.715l9.883 24.263h24.867l-46.33-108.957h-21.927L411.628 245.77h24.248zm32.74-80.366l14.364 35.083h-28.722zm149.653 80.366v-21.639h-53.9v-86.545h-23.78V245.77z"/>
    </g>
  </symbol>

  <symbol viewBox="0 0 185.299 55.073" id="app">
    <g fill="currentColor">
      <path d="M97.507 26.738a3.049 3.049 0 0 0-1.966.718 3.33 3.33 0 0 0-1.15 1.885 3.919 3.919 0 0 0-.136.892v2.2a3.531 3.531 0 0 0 .878 2.427 2.926 2.926 0 0 0 2.292.99 2.994 2.994 0 0 0 2.574-1.274 5.6 5.6 0 0 0 .922-3.361 5.423 5.423 0 0 0-.869-3.171 2.992 2.992 0 0 0-2.545-1.306z"/>
      <path d="M178.707 0H6.491A6.507 6.507 0 0 0-.001 6.507v42.05a6.516 6.516 0 0 0 6.492 6.514h172.216a6.6 6.6 0 0 0 6.593-6.517V6.504A6.6 6.6 0 0 0 178.707 0zM33.599 11.236a7.973 7.973 0 0 1 5.158-2.677 7.869 7.869 0 0 1-1.793 5.63 6.585 6.585 0 0 1-5.2 2.469 7.5 7.5 0 0 1 1.835-5.422zm10.01 28.087c-1.438 2.157-2.946 4.267-5.339 4.305-2.325.054-3.108-1.373-5.774-1.373-2.692 0-3.525 1.334-5.755 1.426-2.28.084-4.022-2.3-5.512-4.442-2.98-4.366-5.3-12.3-2.189-17.7a8.544 8.544 0 0 1 7.192-4.4c2.283-.047 4.4 1.546 5.8 1.546 1.375 0 3.994-1.906 6.694-1.621a8.143 8.143 0 0 1 6.418 3.481 7.99 7.99 0 0 0-3.79 6.7 7.717 7.717 0 0 0 4.694 7.1 17.657 17.657 0 0 1-2.442 4.979zm26.91-1.455l-1.707-5.382h-5.939l-1.627 5.385h-3.035l5.88-18.323h3.632l5.909 18.323zm16.423-1.442a5.3 5.3 0 0 1-4.043 1.745 4.035 4.035 0 0 1-3.74-1.875h-.055v6.96h-2.925V29.01q0-2.119-.108-4.349h2.574l.163 2.094h.055a5.2 5.2 0 0 1 7.207-1.516 5.224 5.224 0 0 1 1.126 1 7.285 7.285 0 0 1 1.559 4.867 7.515 7.515 0 0 1-1.817 5.321zm15.148 0a5.292 5.292 0 0 1-4.037 1.74 4.032 4.032 0 0 1-3.739-1.875h-.055v6.96h-2.93V29.005q0-2.119-.108-4.349h2.578l.163 2.094h.055a5.2 5.2 0 0 1 7.209-1.514 5.181 5.181 0 0 1 1.126 1 7.308 7.308 0 0 1 1.557 4.867 7.514 7.514 0 0 1-1.823 5.324zm17.133.109a7.176 7.176 0 0 1-4.976 1.6 8.687 8.687 0 0 1-4.734-1.141l.678-2.447a8.006 8.006 0 0 0 4.23 1.17 3.99 3.99 0 0 0 2.576-.749 2.446 2.446 0 0 0 .92-2 2.553 2.553 0 0 0-.759-1.878 7.044 7.044 0 0 0-2.52-1.417q-4.8-1.795-4.8-5.254a4.66 4.66 0 0 1 1.681-3.7 6.62 6.62 0 0 1 4.472-1.443 8.838 8.838 0 0 1 4.145.87l-.732 2.393a7.177 7.177 0 0 0-3.5-.843 3.535 3.535 0 0 0-2.41.761 2.183 2.183 0 0 0-.732 1.659 2.243 2.243 0 0 0 .839 1.794 9.479 9.479 0 0 0 2.657 1.414 9.009 9.009 0 0 1 3.469 2.228 4.659 4.659 0 0 1 1.109 3.176 4.885 4.885 0 0 1-1.617 3.808zm11.3-9.676h-3.226v6.415q0 2.447 1.708 2.447a5.159 5.159 0 0 0 1.3-.136l.081 2.229a6.606 6.606 0 0 1-2.276.325 3.508 3.508 0 0 1-2.711-1.06 5.221 5.221 0 0 1-.976-3.562v-6.66h-1.924v-2.2h1.922v-2.419l2.874-.87v3.289h3.226zm12.819 9.3a6.186 6.186 0 0 1-4.826 2.012 5.882 5.882 0 0 1-4.619-1.929 7.046 7.046 0 0 1-1.728-4.871 7.193 7.193 0 0 1 1.775-5.028 6.133 6.133 0 0 1 4.782-1.958 6 6 0 0 1 4.661 1.93 6.955 6.955 0 0 1 1.683 4.837 7.259 7.259 0 0 1-1.735 5.004zm11.247-8.918a5.038 5.038 0 0 0-.922-.081 2.763 2.763 0 0 0-2.386 1.17 4.418 4.418 0 0 0-.732 2.609v6.932h-2.925l.027-9.051q0-2.284-.11-4.159h2.549l.107 2.528h.081a4.519 4.519 0 0 1 1.463-2.093 3.535 3.535 0 0 1 2.115-.708 4.639 4.639 0 0 1 .732.054zm12.981 4.731h-8.779a3.845 3.845 0 0 0 1.274 2.992 4.34 4.34 0 0 0 2.871.924 9.654 9.654 0 0 0 3.552-.625l.458 2.038a10.953 10.953 0 0 1-4.416.816 6.388 6.388 0 0 1-4.812-1.808 6.691 6.691 0 0 1-1.747-4.852 7.589 7.589 0 0 1 1.628-4.974 5.6 5.6 0 0 1 4.605-2.119 4.9 4.9 0 0 1 4.311 2.119 7.149 7.149 0 0 1 1.161 4.158 6.765 6.765 0 0 1-.113 1.33z"/>
      <path d="M82.358 26.738a3.048 3.048 0 0 0-1.964.718 3.34 3.34 0 0 0-1.152 1.885 3.919 3.919 0 0 0-.136.892v2.2a3.527 3.527 0 0 0 .881 2.427 2.922 2.922 0 0 0 2.289.99 2.994 2.994 0 0 0 2.574-1.274 5.6 5.6 0 0 0 .922-3.361 5.412 5.412 0 0 0-.867-3.171 2.994 2.994 0 0 0-2.547-1.306zM65.828 22.002h-.055q-.27 1.165-.867 3.441l-1.517 4.77h4.9l-1.544-4.77q-.239-.729-.917-3.441zM161.978 26.399a2.775 2.775 0 0 0-2.329 1.193 4.375 4.375 0 0 0-.866 2.276h6.1a3.972 3.972 0 0 0-.568-2.248 2.555 2.555 0 0 0-2.337-1.221zM138.621 26.549a2.936 2.936 0 0 0-2.683 1.576 6.053 6.053 0 0 0-.785 3.18 5.929 5.929 0 0 0 .785 3.124 2.993 2.993 0 0 0 4.047 1.22 3 3 0 0 0 1.234-1.248 6.565 6.565 0 0 0 .026-6.277 2.89 2.89 0 0 0-2.624-1.575z"/>
    </g>
  </symbol>

  <symbol viewBox="0 0 185.507 55.073" id="google">
     <path d="M178.637 0H6.871A6.9 6.9 0 0 0 0 6.884v41.3a6.9 6.9 0 0 0 6.871 6.884h171.766a6.9 6.9 0 0 0 6.871-6.884v-41.3A6.9 6.9 0 0 0 178.637 0zM45.25 28.253a2.954 2.954 0 0 1-1.264 1.28l-6.72 3.828-.137.069L17.19 44.788a3.853 3.853 0 0 1-.838.344 1.547 1.547 0 0 1-.247.041 3.452 3.452 0 0 1-.508.069 1.943 1.943 0 0 1-.275-.055 3.159 3.159 0 0 1-.385-.083 2417.118 2417.118 0 0 1-.495-.3l-.11-.1a2.787 2.787 0 0 1-.632-1.941V12.309a3.654 3.654 0 0 1 .069-.688l.041-.193c.041-.138.082-.275.124-.4.027-.069.055-.124.082-.179a2.928 2.928 0 0 1 .22-.344.766.766 0 0 0 .082-.11l.014-.014.11-.1.014.014a1.394 1.394 0 0 1 .371-.262.811.811 0 0 1 .192-.083 2 2 0 0 1 .412-.1c.082 0 .165-.014.247-.014a2.026 2.026 0 0 1 .481.069l.247.041a3.944 3.944 0 0 1 .756.33c.014 0 .014 0 .027.014l20.077 11.436 6.72 3.828a2.4 2.4 0 0 1 1.443 1.983 1.671 1.671 0 0 1-.179.716zm26.686 5.356a8.326 8.326 0 0 1-6.335 2.547 9.095 9.095 0 1 1 0-18.188 8.667 8.667 0 0 1 6.225 2.506l-1.759 1.749a6.333 6.333 0 0 0-4.466-1.776 6.609 6.609 0 0 0 0 13.218 6.09 6.09 0 0 0 4.59-1.817 5.194 5.194 0 0 0 1.347-3.125h-5.936v-2.481h8.341a7.523 7.523 0 0 1 .137 1.556 8.248 8.248 0 0 1-2.144 5.81zm8.891 2.547a5.858 5.858 0 1 1 5.868-5.852 5.786 5.786 0 0 1-5.869 5.852zm12.793 0a5.858 5.858 0 1 1 5.867-5.852 5.786 5.786 0 0 1-5.868 5.852zm18.156-.841c0 4.323-2.556 6.1-5.565 6.1a5.58 5.58 0 0 1-5.18-3.47l2.24-.922a3.236 3.236 0 0 0 2.941 2.079c1.924 0 3.119-1.2 3.119-3.442v-.845h-.082a3.956 3.956 0 0 1-3.078 1.336 5.864 5.864 0 0 1 0-11.717 4.036 4.036 0 0 1 3.078 1.308h.082v-.95h2.445zm4.328.482h-2.556v-17.21h2.556zm7.049-1.955a3.311 3.311 0 0 0 2.872-1.611l1.992 1.322a5.783 5.783 0 0 1-4.864 2.6 5.721 5.721 0 0 1-5.8-5.852 5.567 5.567 0 0 1 5.51-5.865 5.456 5.456 0 0 1 5 3.731l.261.661-7.819 3.236a2.983 2.983 0 0 0 2.844 1.778zm16.737-4.571h-3.573v6.526h-2.57v-17.21h6.142a5.35 5.35 0 1 1 0 10.684zm9.619 6.526h-2.57v-17.21h2.57zm11.515-.028h-2.473v-1.335h-.1a3.6 3.6 0 0 1-3.27 1.694c-2.254 0-4.26-1.487-4.26-3.786 0-2.533 2.5-3.883 4.947-3.883a5.73 5.73 0 0 1 2.68.661v-.165a2.481 2.481 0 0 0-2.707-2.217 2.412 2.412 0 0 0-2.336 1.253l-2.281-.95a4.809 4.809 0 0 1 4.576-2.63c2.941 0 5.222 1.707 5.222 4.764zm4.809 5.246h-2.666l2.609-5.8-4.576-10.436h2.762l3.051 7.462h.082l2.941-7.462h2.84z" fill="currentColor"/>
     <path d="M142.964 23.856a2.985 2.985 0 0 1-3.007 2.938h-3.639v-5.876h3.639a2.968 2.968 0 0 1 3.007 2.938zM125.113 27.864l-5.218 2.169a3.191 3.191 0 0 1 3.048-3.4 2.268 2.268 0 0 1 2.17 1.231zM109.502 30.225a3.264 3.264 0 0 1-3.117 3.514 3.547 3.547 0 0 1 0-7.07 3.285 3.285 0 0 1 3.117 3.556zM84.122 30.211a3.3 3.3 0 1 1-3.3-3.542 3.371 3.371 0 0 1 3.3 3.542zM96.915 30.211a3.3 3.3 0 1 1-3.3-3.542 3.371 3.371 0 0 1 3.3 3.542zM158.569 31.021a3.119 3.119 0 0 1-3.048 2.718c-.838 0-2.018-.412-2.018-1.455 0-1.332 1.469-1.84 2.719-1.84a4.614 4.614 0 0 1 2.347.577z" fill="currentColor"/>
  </symbol>

  <symbol viewBox="0 0 45 45" id= "icon_video">
    <path d="M22 44C9.9 44 .1 34.3 0 22.2v-.4C.1 9.7 10-.1 22.2 0S44.1 10 44 22.2C43.9 34.3 34.1 44 22 44zM3 22c0 10.5 8.5 19 19 19s19-8.5 19-19S32.5 3 22 3 3 11.5 3 22z" class="st0"/><path d="M29 22l-10 5V17z" class="st0"/>
  </symbol>
</svg>
